<svg id="Layer_1" data-name="Layer 1" xmlns="http://www.w3.org/2000/svg" viewBox="0 0 1920 552"><defs><style>.cls-1{fill:#0739e2;}.cls-2{fill:#8503d3;}</style></defs><title>logo</title><path class="cls-1" d="M132.21,429.39c-.83-1-1.67-2-2.47-3C71.43,352.23,59.61,270.35,94.62,183c8.35-20.84,21.25-41.13,39.43-62h0c4.23-4.86,5.89-10.61,4.56-15.77-1.19-4.64-4.76-8.35-9.77-10.19-9.63-3.52-15.64,3.36-18.52,6.67-42.68,49-64.92,107.22-66.1,173.22.57,38.8,7.67,73.43,21.7,105.88a262.8,262.8,0,0,0,44,69.57c4.14,4.69,8.8,7.31,13.49,7.57.27,0,.53,0,.78,0a14.32,14.32,0,0,0,9.68-3.9c6.65-6,6.41-15-.64-23.48Z"/><path class="cls-1" d="M196.2,369.37c-.36-.43-.72-.87-1.06-1.32h0C161.07,323.48,153.62,274.9,173,223.66c4.13-10.93,11-21.28,17.62-31.29,2.46-3.72,5-7.57,7.4-11.41,5.29-8.52,4.68-16.49-1.66-21.88-6.64-5.63-15.27-4.65-22,2.49-1,1.08-2,2.27-3.29,3.87-25.64,32.42-38.72,69.6-38.88,110.49a174.57,174.57,0,0,0,41.62,114.46c3.86,4.53,8.37,6.84,12.87,6.84a14.59,14.59,0,0,0,9.06-3.34c7.23-5.66,8-14.57,1.92-22.71C197.18,370.56,196.69,370,196.2,369.37Z"/><path class="cls-2" d="M409.6,384.37c-2.91.86-5.26,2.77-7.33,4.47l-1.15.92c-33.44,26.4-71.87,36.79-114.21,30.88-18-2.51-35.21-8.62-52.61-18.66-5-2.9-10-3.74-14.37-2.42a15,15,0,0,0-9.07,8.08c-2.33,4.69-4.34,13.67,8.38,21.18,27.66,16.33,57.13,24.28,90,24.28h2.71a161.92,161.92,0,0,0,78.26-19.76c10.4-5.67,20.13-12.74,29.54-19.58l3.64-2.64c6.79-4.92,8.41-12.49,4.21-19.75C423.74,384.7,417.18,382.15,409.6,384.37Z"/><path class="cls-2" d="M233.71,150.89c.84-.44,1.66-.92,2.48-1.41s1.51-.9,2.3-1.29c54.48-27.42,107.44-23.84,157.42,10.65,1.4,1,2.74,2.07,4.17,3.23a54.3,54.3,0,0,0,6.06,4.53,16.28,16.28,0,0,0,8.56,2.63c4.15,0,8.08-1.9,11.27-5.63,5.34-6.22,5.27-13.51-.2-20a33.77,33.77,0,0,0-4.94-4.55l-.28-.22c-32.08-25.75-69.5-39.09-111.29-39.64H309c-31.39,0-67.84,10.08-90.78,25.1-8.77,5.75-11.18,14.16-6.3,22C216.47,153.44,225.21,155.31,233.71,150.89Z"/><path class="cls-1" d="M248.92,217.94c-15,12.81-24,34.43-24.07,57.84-.09,23.66,8.89,45.62,24,58.76l2.55,2.21L273,317.58l-2.32-2.85c-20.19-24.82-20.23-52.11-.09-76.83l2.3-2.82-21.37-19.34Z"/><path class="cls-2" d="M309.94,360.51c15.57,0,30.49-4.53,45-13.6,8.47-5.29,11.27-14.3,6.82-21.89a14.79,14.79,0,0,0-9.15-7.28c-4.23-1-9.05,0-13.93,3.06-13.55,8.43-27.45,10.93-42.53,7.63a13,13,0,0,0-10,2.21c-3.73,3-7.17,6.18-11.15,9.9-1.62,1.51-3.33,3.11-5.19,4.81l-4.38,4,5.44,2.36C284.44,357.57,297.4,360.51,309.94,360.51Z"/><path class="cls-2" d="M284.93,220.71c3,2.26,7.84,4.15,11.94,3.28,14.42-3.05,27.9-.64,41.2,7.38a20.81,20.81,0,0,0,10.67,3.29,14.17,14.17,0,0,0,12.42-7.26,15.14,15.14,0,0,0,1.9-12.31c-.9-3-3.31-7.16-9.62-10.11-10.75-5-22.23-10.09-34.1-12.17-16.5-2.89-32.67,0-48.06,8.56l-4.6,2.56,3.85,3.6c1.54,1.44,3,2.84,4.38,4.2A108.09,108.09,0,0,0,284.93,220.71Z"/><path d="M719.79,352.56a133.09,133.09,0,0,1-43.59,34.75q-25.62,12.88-56.48,12.89A129.82,129.82,0,0,1,529,363.94a123.86,123.86,0,0,1-27.27-39.4,123.88,123.88,0,0,1,0-97.38,124.87,124.87,0,0,1,67.93-66.07,130.59,130.59,0,0,1,50.05-9.59q30.85,0,56.48,12.88A130.71,130.71,0,0,1,718.9,198l-32.06,33a84.44,84.44,0,0,0-28.62-25.62A81,81,0,0,0,588.1,202a84.32,84.32,0,0,0-25.91,17.38,82,82,0,0,0-17.53,25.47,77,77,0,0,0,0,61.72A82,82,0,0,0,562.19,332a84.11,84.11,0,0,0,25.91,17.37,78.4,78.4,0,0,0,31.62,6.44q22.17,0,39.25-10a89.22,89.22,0,0,0,28.46-26.52Z"/><path d="M878.6,395.71H835.44v-9.29a71.48,71.48,0,0,1-24.12,10.79,114.36,114.36,0,0,1-26.21,3,65.75,65.75,0,0,1-22.77-3.74,51.26,51.26,0,0,1-17.69-10.79A48.26,48.26,0,0,1,733.13,369a54.17,54.17,0,0,1-4.06-21.28q0-14.67,6.45-25.62a55.54,55.54,0,0,1,17.53-18.27A81.43,81.43,0,0,1,779,292.93a135.1,135.1,0,0,1,31.92-3.59h24.88q0-15.29-9.9-24.28t-28.47-9a57.3,57.3,0,0,0-18.58,3.29q-9.57,3.3-19.17,12l-25.47-25.78a98,98,0,0,1,31.92-20.37,100.37,100.37,0,0,1,37.3-7.19q18,0,32,5.69t22.66,14.69A64.13,64.13,0,0,1,874,263.87q4.62,14.08,4.62,35.95Zm-43.16-43.15V320.5H815.68a114.8,114.8,0,0,0-16.94,1.19A47.77,47.77,0,0,0,785,325.74a25.47,25.47,0,0,0-9.28,7.34,17.21,17.21,0,0,0-3.46,10.79,18,18,0,0,0,7,14.68q7,5.7,18.12,5.69a62.39,62.39,0,0,0,19-3A91.1,91.1,0,0,0,835.44,352.56Z"/><path d="M1038.91,347.16a43.74,43.74,0,0,1-6,22.93,54.5,54.5,0,0,1-15.61,16.78,72.15,72.15,0,0,1-21.63,10.19A86,86,0,0,1,972,400.5a89.54,89.54,0,0,1-36.49-7.34q-16.69-7.35-29.29-23.52l26.06-26.37a58.57,58.57,0,0,0,18,15.43,45,45,0,0,0,21.87,5.54q10.18,0,16.94-3.74a12.14,12.14,0,0,0,6.74-11.24q0-7.78-9.6-13t-27-10.33a127.06,127.06,0,0,1-19.76-7.64,72.3,72.3,0,0,1-17.08-11.39,53.51,53.51,0,0,1-12-15.43,43,43,0,0,1-4.5-20.07,44.14,44.14,0,0,1,5.85-22.63A53.61,53.61,0,0,1,927.05,232a72.46,72.46,0,0,1,21.47-10.34A84.66,84.66,0,0,1,972.84,218q39.64,0,64.87,30l-25.77,26.07a59.29,59.29,0,0,0-17.08-14.68,42,42,0,0,0-21-5.4,35.59,35.59,0,0,0-8.24,1.05,36.05,36.05,0,0,0-8.1,3,17.91,17.91,0,0,0-6.13,5.1,11.31,11.31,0,0,0-2.41,7q0,6.88,9.15,12t26.22,10.19a122.18,122.18,0,0,1,21,8.39,81.67,81.67,0,0,1,17.37,11.84,52.49,52.49,0,0,1,11.84,15.28A41.94,41.94,0,0,1,1038.91,347.16Z"/><path d="M1162.05,391.81a50.19,50.19,0,0,1-15.28,6.29,73.82,73.82,0,0,1-17.38,2.1q-15.29,0-25.77-3.74a37,37,0,0,1-16.78-11.54c-4.19-5.2-7.25-11.79-9.13-19.78a122.19,122.19,0,0,1-2.86-28.17v-75.8h-22.76V241.69a80.86,80.86,0,0,0,34-25.77q13-17.08,17.82-44.34H1118v50.63h43.75v39H1118V340a29.85,29.85,0,0,0,1.65,10.79,16.87,16.87,0,0,0,4.35,6.59,14.67,14.67,0,0,0,6.13,3.3,29,29,0,0,0,7.35.9,52.56,52.56,0,0,0,12.29-1.8,30.75,30.75,0,0,0,12.28-6Z"/><path d="M1380.79,395.71h-46.46V289.63H1240V395.71H1193.5V156.29H1240v95h94.38v-95h46.46Z"/><path d="M1598.62,309.11a89.9,89.9,0,0,1-7.19,36.11A88.16,88.16,0,0,1,1571.65,374a94.23,94.23,0,0,1-29.51,19.18,93.16,93.16,0,0,1-36.11,7,92.06,92.06,0,0,1-36-7,93.06,93.06,0,0,1-29.36-19.33,89.62,89.62,0,0,1-27-64.72,87,87,0,0,1,7.34-35.51A93.6,93.6,0,0,1,1441,244.54,92.15,92.15,0,0,1,1506,218a93.16,93.16,0,0,1,36.11,7,94.4,94.4,0,0,1,29.51,19.18,87.69,87.69,0,0,1,19.78,28.92A90.2,90.2,0,0,1,1598.62,309.11Zm-43.15,0a54.31,54.31,0,0,0-3.89-20.67,53.7,53.7,0,0,0-10.6-16.78,48.6,48.6,0,0,0-15.69-11.24,47.11,47.11,0,0,0-38.22,0,48.39,48.39,0,0,0-15.69,11.24,53.7,53.7,0,0,0-10.6,16.78,55.32,55.32,0,0,0,10.6,58.13,48.36,48.36,0,0,0,15.69,11.23,47.22,47.22,0,0,0,38.22,0A48.57,48.57,0,0,0,1541,346.57a54.49,54.49,0,0,0,14.49-37.46Z"/><path d="M1752.63,347.16a43.74,43.74,0,0,1-6,22.93A54.5,54.5,0,0,1,1731,386.87a72.15,72.15,0,0,1-21.63,10.19,86,86,0,0,1-23.72,3.44,89.6,89.6,0,0,1-36.49-7.34q-16.68-7.35-29.29-23.52L1646,343.27a58.57,58.57,0,0,0,18,15.43,44.93,44.93,0,0,0,21.87,5.54q10.18,0,16.93-3.74a12.13,12.13,0,0,0,6.75-11.24q0-7.78-9.6-13t-27-10.33a127.17,127.17,0,0,1-19.77-7.64,72.5,72.5,0,0,1-17.08-11.39,53.47,53.47,0,0,1-12-15.43,43,43,0,0,1-4.5-20.07,44,44,0,0,1,5.85-22.63A53.49,53.49,0,0,1,1640.77,232a72.34,72.34,0,0,1,21.47-10.34,84.64,84.64,0,0,1,24.31-3.59q39.66,0,64.88,30l-25.77,26.07a59.29,59.29,0,0,0-17.08-14.68,42,42,0,0,0-21-5.4,35.59,35.59,0,0,0-8.24,1.05,36.05,36.05,0,0,0-8.1,3,17.91,17.91,0,0,0-6.13,5.1,11.25,11.25,0,0,0-2.41,7q0,6.88,9.15,12t26.21,10.19a122,122,0,0,1,21,8.39,81.67,81.67,0,0,1,17.37,11.84,52.49,52.49,0,0,1,11.84,15.28A42.07,42.07,0,0,1,1752.63,347.16Z"/><path d="M1875.78,391.81a50.19,50.19,0,0,1-15.28,6.29,73.76,73.76,0,0,1-17.38,2.1q-15.28,0-25.77-3.74a37,37,0,0,1-16.78-11.54c-4.19-5.2-7.25-11.79-9.13-19.78a122.79,122.79,0,0,1-2.85-28.17v-75.8h-22.77V241.69a80.79,80.79,0,0,0,34-25.77q13-17.08,17.82-44.34h14.08v50.63h43.75v39h-43.75V340a29.85,29.85,0,0,0,1.65,10.79,16.87,16.87,0,0,0,4.35,6.59,14.67,14.67,0,0,0,6.13,3.3,29.16,29.16,0,0,0,7.36.9,52.56,52.56,0,0,0,12.28-1.8,30.68,30.68,0,0,0,12.28-6Z"/></svg>